<?xml version="1.0" standalone="no"?>
<!DOCTYPE svg PUBLIC "-//W3C//DTD SVG 20010904//EN"
 "http://www.w3.org/TR/2001/REC-SVG-20010904/DTD/svg10.dtd">
<svg version="1.0" xmlns="http://www.w3.org/2000/svg"
 width="512.000000pt" height="512.000000pt" viewBox="0 0 512.000000 512.000000"
 preserveAspectRatio="xMidYMid meet">
<metadata>
Created by potrace 1.11, written by Peter Selinger 2001-2013
</metadata>
<g transform="translate(0.000000,512.000000) scale(0.100000,-0.100000)"
fill="#000000" stroke="none">
<path d="M3849 3806 c-2 -2 -31 -7 -64 -10 -33 -4 -109 -13 -170 -22 -60 -8
-132 -17 -160 -19 -45 -5 -158 -19 -240 -30 -16 -2 -57 -7 -90 -10 -33 -3 -71
-8 -85 -10 -14 -3 -50 -7 -80 -10 -30 -3 -73 -8 -95 -11 -63 -8 -106 -13 -160
-18 -27 -3 -108 -13 -180 -21 -202 -23 -206 -24 -270 -30 -33 -4 -73 -9 -90
-12 -16 -3 -37 -5 -45 -5 -8 0 -69 -6 -135 -13 -66 -8 -147 -17 -180 -20 -33
-3 -73 -8 -90 -10 -16 -2 -57 -7 -90 -10 -33 -3 -71 -8 -85 -10 -14 -2 -55 -6
-92 -10 -37 -3 -75 -7 -85 -9 -10 -2 -54 -7 -98 -11 -44 -4 -87 -8 -95 -10 -8
-1 -46 -6 -85 -9 -38 -4 -86 -9 -105 -11 -49 -5 -126 -14 -185 -20 -27 -3 -68
-7 -90 -10 -22 -2 -67 -7 -100 -10 -33 -3 -71 -8 -85 -10 -14 -2 -54 -7 -90
-11 -36 -3 -91 -9 -124 -12 l-59 -7 39 -36 c22 -21 55 -51 74 -67 19 -17 33
-32 30 -35 -3 -3 -26 -8 -52 -11 -74 -10 -80 -14 -65 -41 6 -13 38 -44 70 -70
31 -25 55 -50 52 -54 -2 -5 -27 -11 -54 -15 -55 -7 -69 -19 -50 -42 10 -12 9
-16 -9 -21 -17 -4 -19 -9 -12 -28 7 -19 5 -24 -12 -28 -20 -6 -21 -13 -7 -67
3 -9 -5 -16 -21 -18 -48 -6 -52 -10 -39 -34 6 -13 23 -34 38 -48 56 -52 57
-58 9 -67 -50 -10 -53 -30 -11 -74 26 -28 24 -32 -19 -43 -36 -8 -35 -18 7
-65 l36 -39 -31 -7 c-37 -8 -37 -12 -4 -46 l26 -27 -48 -7 c-86 -11 -170 -26
-182 -34 -8 -5 6 -34 43 -89 171 -262 436 -510 805 -754 185 -122 315 -183
451 -212 71 -15 236 -18 344 -6 39 5 104 11 145 15 41 3 86 8 100 10 14 2 54
7 90 10 36 3 76 8 90 10 14 2 59 7 100 11 41 3 84 8 95 10 11 2 56 6 100 10
44 3 87 7 95 9 8 3 51 7 95 11 44 3 98 8 120 10 22 2 74 7 115 10 41 3 89 7
105 9 17 1 77 6 135 10 58 4 107 8 110 10 3 2 43 6 90 10 47 3 96 8 110 10 14
2 54 6 90 10 36 3 81 8 100 10 19 2 89 9 155 15 66 6 140 13 165 15 25 3 72 7
105 10 57 5 93 9 175 20 19 2 60 7 90 10 30 3 102 12 160 20 58 8 128 17 155
20 28 4 57 8 65 10 8 2 38 7 65 10 127 16 278 44 324 59 82 30 116 69 120 141
3 54 -34 219 -58 258 -10 18 -33 59 -51 91 -52 95 -379 589 -539 816 -37 52
-116 167 -176 255 -60 88 -123 179 -139 202 -17 23 -80 114 -141 202 -94 138
-114 161 -136 161 -14 0 -28 -2 -30 -4z"/>
</g>
</svg>
